<?xml version="1.0" standalone="no"?><!DOCTYPE svg PUBLIC "-//W3C//DTD SVG 1.1//EN" "http://www.w3.org/Graphics/SVG/1.1/DTD/svg11.dtd"><svg t="1647588470785" class="icon" viewBox="0 0 1024 1024" version="1.1" xmlns="http://www.w3.org/2000/svg" p-id="2240" width="48" height="48" xmlns:xlink="http://www.w3.org/1999/xlink"><defs><style type="text/css"></style></defs><path d="M607.720369 574.2592l301.575877 308.869908-33.823508 33.020061L573.912615 607.279262zM427.6224 585.334154l11.279754 11.027692L137.231754 905.168738l-11.279754-11.027692zM148.117662 107.409723l301.59163 293.131815-32.941292 33.886524L115.160615 141.312zM884.184615 343.481108l16.273723 44.378584-270.036676 99.060185-16.273724-44.362831zM624.718769 520.286523l262.774154 86.646154-4.946708 14.966154-262.742646-86.661908zM127.338338 358.431508l277.37797 114.798277-6.033723 14.556553L121.304615 372.988062zM395.122215 512.960985l13.233231 45.38683L138.318769 637.085538l-13.233231-45.371076zM636.5184 122.391631l43.527877 18.479261-114.751015 270.099693-43.512124-18.495016zM550.896246 619.52l100.1472 270.052431-14.777108 5.482338-100.1472-270.052431zM458.295138 614.289723l44.457354 16.068923L402.510769 907.736615l-44.457354-16.068923zM886.768246 118.941538l11.248246 10.980431-301.654646 308.8384-11.264-10.996184zM387.607631 121.304615l115.885292 277.362216-14.5408 6.080984-115.885292-277.377969z" fill="#15c5f1" p-id="2241"></path><path d="M512 512m-86.646154 0a86.646154 86.646154 0 1 0 173.292308 0 86.646154 86.646154 0 1 0-173.292308 0Z" fill="#15c5f1" p-id="2242"></path><path d="M945.230769 960.984615m-63.015384 0a63.015385 63.015385 0 1 0 126.030769 0 63.015385 63.015385 0 1 0-126.030769 0Z" fill="#15c5f1" p-id="2243"></path><path d="M63.015385 960.984615m-63.015385 0a63.015385 63.015385 0 1 0 126.030769 0 63.015385 63.015385 0 1 0-126.030769 0Z" fill="#15c5f1" p-id="2244"></path><path d="M63.015385 63.015385m-63.015385 0a63.015385 63.015385 0 1 0 126.030769 0 63.015385 63.015385 0 1 0-126.030769 0Z" fill="#15c5f1" p-id="2245"></path><path d="M960.984615 63.015385m-63.015384 0a63.015385 63.015385 0 1 0 126.030769 0 63.015385 63.015385 0 1 0-126.030769 0Z" fill="#15c5f1" p-id="2246"></path><path d="M945.230769 330.830769m-47.261538 0a47.261538 47.261538 0 1 0 94.523077 0 47.261538 47.261538 0 1 0-94.523077 0Z" fill="#15c5f1" p-id="2247"></path><path d="M945.230769 630.153846m-47.261538 0a47.261538 47.261538 0 1 0 94.523077 0 47.261538 47.261538 0 1 0-94.523077 0Z" fill="#15c5f1" p-id="2248"></path><path d="M661.661538 960.984615m-47.261538 0a47.261538 47.261538 0 1 0 94.523077 0 47.261538 47.261538 0 1 0-94.523077 0Z" fill="#15c5f1" p-id="2249"></path><path d="M362.338462 960.984615m-47.261539 0a47.261538 47.261538 0 1 0 94.523077 0 47.261538 47.261538 0 1 0-94.523077 0Z" fill="#15c5f1" p-id="2250"></path><path d="M677.415385 78.769231m-47.261539 0a47.261538 47.261538 0 1 0 94.523077 0 47.261538 47.261538 0 1 0-94.523077 0Z" fill="#15c5f1" p-id="2251"></path><path d="M362.338462 63.015385m-47.261539 0a47.261538 47.261538 0 1 0 94.523077 0 47.261538 47.261538 0 1 0-94.523077 0Z" fill="#15c5f1" p-id="2252"></path><path d="M78.769231 630.153846m-47.261539 0a47.261538 47.261538 0 1 0 94.523077 0 47.261538 47.261538 0 1 0-94.523077 0Z" fill="#15c5f1" p-id="2253"></path><path d="M63.015385 346.584615m-47.261539 0a47.261538 47.261538 0 1 0 94.523077 0 47.261538 47.261538 0 1 0-94.523077 0Z" fill="#15c5f1" p-id="2254"></path></svg>